<svg width="65" height="9" viewBox="0 0 65 9" fill="none" xmlns="http://www.w3.org/2000/svg">
<path d="M3 4.68V7.056H3.12C3.52 7.056 3.812 6.984 3.996 6.84C4.188 6.688 4.284 6.424 4.284 6.048C4.284 5.704 4.192 5.436 4.008 5.244C4.376 5.164 4.712 5.06 5.016 4.932C5.32 4.804 5.576 4.636 5.784 4.428C6.12 4.628 6.36 4.884 6.504 5.196C6.648 5.5 6.72 5.876 6.72 6.324C6.72 7.068 6.448 7.64 5.904 8.04C5.36 8.44 4.532 8.64 3.42 8.64H0.66V2.244H3V3.552H3.108C3.468 3.552 3.728 3.484 3.888 3.348C4.056 3.204 4.14 2.956 4.14 2.604C4.14 2.244 4.056 1.996 3.888 1.86C3.728 1.716 3.468 1.644 3.108 1.644H0.66L0 -9.53674e-07H3.6C4.568 -9.53674e-07 5.272 0.199999 5.712 0.599999C6.152 0.999999 6.372 1.56 6.372 2.28C6.372 2.736 6.268 3.12 6.06 3.432C5.86 3.736 5.592 3.98 5.256 4.164C4.92 4.348 4.556 4.48 4.164 4.56C3.772 4.64 3.384 4.68 3 4.68ZM7.55063 1.92L6.89062 -9.53674e-07H10.4066C11.2306 -9.53674e-07 11.8946 0.127999 12.3986 0.383999C12.9026 0.631999 13.2706 1.06 13.5026 1.668C13.7346 2.268 13.8506 3.096 13.8506 4.152C13.8506 5.28 13.7386 6.172 13.5146 6.828C13.2906 7.476 12.9306 7.94 12.4346 8.22C11.9466 8.492 11.2986 8.632 10.4906 8.64V6.696C10.7946 6.632 11.0106 6.412 11.1386 6.036C11.2666 5.66 11.3306 5.032 11.3306 4.152C11.3306 3.552 11.2986 3.092 11.2346 2.772C11.1706 2.444 11.0626 2.22 10.9106 2.1C10.7586 1.98 10.5426 1.92 10.2626 1.92H7.55063ZM7.55063 8.64V2.52H9.89062V8.64H7.55063ZM17.3259 3.744V5.412H14.4459V3.744H17.3259ZM18.4516 1.92L17.6836 -9.53674e-07H23.4316L23.0716 1.92H18.4516ZM18.3436 2.52H20.6836V3.24H22.9276L22.5676 5.16H20.6836V6.72H23.5156L23.1556 8.64H18.3436V2.52ZM28.8313 4.284L27.5713 1.596L28.0753 -9.53674e-07H30.3553L28.8313 4.284ZM23.8633 -9.53674e-07H26.1913L30.2353 8.64H27.9553L23.8633 -9.53674e-07ZM25.3993 4.608L26.6353 7.176L26.0713 8.64H23.8033L25.3993 4.608ZM30.5184 1.92V-9.53674e-07H36.5664L36.2064 1.92H30.5184ZM32.2704 2.52H34.6224V8.64H32.2704V2.52ZM40.2211 4.272V4.116C40.5411 3.964 40.7011 3.584 40.7011 2.976C40.7011 2.608 40.6691 2.336 40.6051 2.16C40.5411 1.976 40.4291 1.852 40.2691 1.788C40.1171 1.724 39.9011 1.692 39.6211 1.692H37.2811L36.6211 -9.53674e-07H40.0291C40.7331 -9.53674e-07 41.3211 0.0919991 41.7931 0.275999C42.2651 0.451999 42.6171 0.751999 42.8491 1.176C43.0891 1.592 43.2091 2.164 43.2091 2.892C43.2091 3.732 43.0251 4.376 42.6571 4.824L43.5571 8.64H41.1571L40.2211 4.272ZM39.6211 8.64H37.2811V2.292H39.6211V8.64ZM44.268 1.92L43.5 -9.53674e-07H49.248L48.888 1.92H44.268ZM44.16 2.52H46.5V3.24H48.744L48.384 5.16H46.5V6.72H49.332L48.972 8.64H44.16V2.52ZM54.4797 6.864H53.2677L49.2717 -9.53674e-07H52.2477L53.9277 3.612L55.6077 -9.53674e-07H57.9477L54.4797 6.864ZM55.5357 6.048L57.8157 1.512V8.64H55.5357V6.048ZM50.0517 2.448L52.3317 6.48V8.64H50.0517V2.448ZM59.1274 1.92L58.3594 -9.53674e-07H64.1074L63.7474 1.92H59.1274ZM59.0194 2.52H61.3594V3.24H63.6034L63.2434 5.16H61.3594V6.72H64.1914L63.8314 8.64H59.0194V2.52Z" fill="black"/>
</svg>
