<svg width="21" height="9" viewBox="0 0 21 9" fill="none" xmlns="http://www.w3.org/2000/svg">
<path d="M3 4.68V7.056H3.12C3.52 7.056 3.812 6.984 3.996 6.84C4.188 6.688 4.284 6.424 4.284 6.048C4.284 5.704 4.192 5.436 4.008 5.244C4.376 5.164 4.712 5.06 5.016 4.932C5.32 4.804 5.576 4.636 5.784 4.428C6.12 4.628 6.36 4.884 6.504 5.196C6.648 5.5 6.72 5.876 6.72 6.324C6.72 7.068 6.448 7.64 5.904 8.04C5.36 8.44 4.532 8.64 3.42 8.64H0.66V2.244H3V3.552H3.108C3.468 3.552 3.728 3.484 3.888 3.348C4.056 3.204 4.14 2.956 4.14 2.604C4.14 2.244 4.056 1.996 3.888 1.86C3.728 1.716 3.468 1.644 3.108 1.644H0.66L0 -9.53674e-07H3.6C4.568 -9.53674e-07 5.272 0.199999 5.712 0.599999C6.152 0.999999 6.372 1.56 6.372 2.28C6.372 2.736 6.268 3.12 6.06 3.432C5.86 3.736 5.592 3.98 5.256 4.164C4.92 4.348 4.556 4.48 4.164 4.56C3.772 4.64 3.384 4.68 3 4.68ZM7.55063 1.92L6.89062 -9.53674e-07H10.4066C11.2306 -9.53674e-07 11.8946 0.127999 12.3986 0.383999C12.9026 0.631999 13.2706 1.06 13.5026 1.668C13.7346 2.268 13.8506 3.096 13.8506 4.152C13.8506 5.28 13.7386 6.172 13.5146 6.828C13.2906 7.476 12.9306 7.94 12.4346 8.22C11.9466 8.492 11.2986 8.632 10.4906 8.64V6.696C10.7946 6.632 11.0106 6.412 11.1386 6.036C11.2666 5.66 11.3306 5.032 11.3306 4.152C11.3306 3.552 11.2986 3.092 11.2346 2.772C11.1706 2.444 11.0626 2.22 10.9106 2.1C10.7586 1.98 10.5426 1.92 10.2626 1.92H7.55063ZM7.55063 8.64V2.52H9.89062V8.64H7.55063ZM18.8587 4.284L17.5987 1.596L18.1027 -9.53674e-07H20.3827L18.8587 4.284ZM13.8907 -9.53674e-07H16.2187L20.2627 8.64H17.9827L13.8907 -9.53674e-07ZM15.4267 4.608L16.6627 7.176L16.0987 8.64H13.8307L15.4267 4.608Z" fill="black"/>
</svg>
